<svg xmlns="http://www.w3.org/2000/svg" xmlns:xlink="http://www.w3.org/1999/xlink" viewBox="0 0 177 133.89"><defs><style>.cls-1{fill:none;}.cls-2{fill:#da661b;}.cls-3{fill:#e07e3e;}.cls-4{clip-path:url(#clip-path);}.cls-5{fill:#606060;stroke:#606060;stroke-linejoin:round;stroke-width:3px;}</style><clipPath id="clip-path"><rect class="cls-1" x="34.55" y="16.93" width="109.45" height="109.21"/></clipPath></defs><title>Logo</title><g id="Layer_2" data-name="Layer 2"><g id="Layer_1-2" data-name="Layer 1"><path class="cls-2" d="M3,31.17a1.5,1.5,0,0,1-1.5-1.5V3A1.5,1.5,0,0,1,3,1.5H61.92A1.5,1.5,0,0,1,63.42,3v8H174a1.5,1.5,0,0,1,1.5,1.5V29.67a1.5,1.5,0,0,1-1.5,1.5Z"/><path class="cls-2" d="M61.92,3v9.53H174V29.67H3V3H61.92m0-3H3A3,3,0,0,0,0,3V29.67a3,3,0,0,0,3,3H174a3,3,0,0,0,3-3V12.53a3,3,0,0,0-3-3H64.92V3a3,3,0,0,0-3-3Z"/><rect class="cls-3" x="1.5" y="10.12" width="174" height="122.27" rx="1.5" ry="1.5"/><path class="cls-3" d="M174,11.62V130.89H3V11.62H174m0-3H3a3,3,0,0,0-3,3V130.89a3,3,0,0,0,3,3H174a3,3,0,0,0,3-3V11.62a3,3,0,0,0-3-3Z"/><g class="cls-4"><path class="cls-5" d="M75.64,80.64h-32v9.1h32v13.65l18.2-18.2L75.64,67Zm27.27-4.55V62.44h32v-9.1h-32V39.68l-18.2,18.2Z"/></g></g></g></svg>